<?xml version="1.0" encoding="UTF-8" standalone="no" ?>
<!DOCTYPE svg PUBLIC "-//W3C//DTD SVG 1.1//EN" "http://www.w3.org/Graphics/SVG/1.1/DTD/svg11.dtd">
<svg xmlns="http://www.w3.org/2000/svg" xmlns:xlink="http://www.w3.org/1999/xlink" version="1.1" width="1080" height="1080" viewBox="0 0 1080 1080" xml:space="preserve">
<desc>Created with Fabric.js 5.2.4</desc>
<defs>
</defs>
<g transform="matrix(1 0 0 1 540 540)" id="05d31d13-6830-4d50-8f6c-0cbf27166949"  >
<rect style="stroke: none; stroke-width: 1; stroke-dasharray: none; stroke-linecap: butt; stroke-dashoffset: 0; stroke-linejoin: miter; stroke-miterlimit: 4; fill: rgb(255,255,255); fill-rule: nonzero; opacity: 1; visibility: hidden;" vector-effect="non-scaling-stroke"  x="-540" y="-540" rx="0" ry="0" width="1080" height="1080" />
</g>
<g transform="matrix(1 0 0 1 540 540)" id="38d788fe-aa9d-44c8-9d9d-3ee33db1aaa4"  >
</g>
<g transform="matrix(1 0 0 1 540 540)"  >
<g style="" vector-effect="non-scaling-stroke"   >
		<g transform="matrix(33.33 0 0 33.33 0 -333.33)"  >
<path style="stroke: none; stroke-width: 1; stroke-dasharray: none; stroke-linecap: butt; stroke-dashoffset: 0; stroke-linejoin: miter; stroke-miterlimit: 4; fill: rgb(255,255,255); fill-rule: nonzero; opacity: 1;" vector-effect="non-scaling-stroke"  transform=" translate(-12, -2)" d="M 11 1 C 11 0.447715 11.4477 0 12 0 C 12.5523 0 13 0.447715 13 1 L 13 3 C 13 3.55228 12.5523 4 12 4 C 11.4477 4 11 3.55228 11 3 L 11 1 Z" stroke-linecap="round" />
</g>
		<g transform="matrix(33.33 0 0 33.33 0 0)"  >
<path style="stroke: none; stroke-width: 1; stroke-dasharray: none; stroke-linecap: butt; stroke-dashoffset: 0; stroke-linejoin: miter; stroke-miterlimit: 4; fill: rgb(255,255,255); fill-rule: evenodd; opacity: 1;" vector-effect="non-scaling-stroke"  transform=" translate(-12, -12)" d="M 18 12 C 18 15.3137 15.3137 18 12 18 C 8.68629 18 6 15.3137 6 12 C 6 8.68629 8.68629 6 12 6 C 15.3137 6 18 8.68629 18 12 Z M 8.06167 12 C 8.06167 14.1751 9.82492 15.9383 12 15.9383 C 14.1751 15.9383 15.9383 14.1751 15.9383 12 C 15.9383 9.82492 14.1751 8.06167 12 8.06167 C 9.82492 8.06167 8.06167 9.82492 8.06167 12 Z" stroke-linecap="round" />
</g>
		<g transform="matrix(33.33 0 0 33.33 235.7 -235.7)"  >
<path style="stroke: none; stroke-width: 1; stroke-dasharray: none; stroke-linecap: butt; stroke-dashoffset: 0; stroke-linejoin: miter; stroke-miterlimit: 4; fill: rgb(255,255,255); fill-rule: nonzero; opacity: 1;" vector-effect="non-scaling-stroke"  transform=" translate(-19.07, -4.93)" d="M 20.4853 3.51472 C 20.0947 3.12419 19.4616 3.12419 19.0711 3.51472 L 17.6568 4.92893 C 17.2663 5.31946 17.2663 5.95262 17.6568 6.34315 C 18.0474 6.73367 18.6805 6.73367 19.0711 6.34315 L 20.4853 4.92893 C 20.8758 4.53841 20.8758 3.90524 20.4853 3.51472 Z" stroke-linecap="round" />
</g>
		<g transform="matrix(33.33 0 0 33.33 -333.33 0)"  >
<path style="stroke: none; stroke-width: 1; stroke-dasharray: none; stroke-linecap: butt; stroke-dashoffset: 0; stroke-linejoin: miter; stroke-miterlimit: 4; fill: rgb(255,255,255); fill-rule: nonzero; opacity: 1;" vector-effect="non-scaling-stroke"  transform=" translate(-2, -12)" d="M 1 13 C 0.447715 13 0 12.5523 0 12 C 0 11.4477 0.447715 11 1 11 L 3 11 C 3.55228 11 4 11.4477 4 12 C 4 12.5523 3.55228 13 3 13 L 1 13 Z" stroke-linecap="round" />
</g>
		<g transform="matrix(33.33 0 0 33.33 -235.7 -235.7)"  >
<path style="stroke: none; stroke-width: 1; stroke-dasharray: none; stroke-linecap: butt; stroke-dashoffset: 0; stroke-linejoin: miter; stroke-miterlimit: 4; fill: rgb(255,255,255); fill-rule: nonzero; opacity: 1;" vector-effect="non-scaling-stroke"  transform=" translate(-4.93, -4.93)" d="M 3.51472 3.51472 C 3.1242 3.90524 3.1242 4.53841 3.51472 4.92893 L 4.92894 6.34315 C 5.31946 6.73367 5.95263 6.73367 6.34315 6.34315 C 6.73368 5.95262 6.73368 5.31946 6.34315 4.92893 L 4.92894 3.51472 C 4.53841 3.12419 3.90525 3.12419 3.51472 3.51472 Z" stroke-linecap="round" />
</g>
		<g transform="matrix(33.33 0 0 33.33 0 333.33)"  >
<path style="stroke: none; stroke-width: 1; stroke-dasharray: none; stroke-linecap: butt; stroke-dashoffset: 0; stroke-linejoin: miter; stroke-miterlimit: 4; fill: rgb(255,255,255); fill-rule: nonzero; opacity: 1;" vector-effect="non-scaling-stroke"  transform=" translate(-12, -22)" d="M 11 21 C 11 20.4477 11.4477 20 12 20 C 12.5523 20 13 20.4477 13 21 L 13 23 C 13 23.5523 12.5523 24 12 24 C 11.4477 24 11 23.5523 11 23 L 11 21 Z" stroke-linecap="round" />
</g>
		<g transform="matrix(33.33 0 0 33.33 -235.7 235.7)"  >
<path style="stroke: none; stroke-width: 1; stroke-dasharray: none; stroke-linecap: butt; stroke-dashoffset: 0; stroke-linejoin: miter; stroke-miterlimit: 4; fill: rgb(255,255,255); fill-rule: nonzero; opacity: 1;" vector-effect="non-scaling-stroke"  transform=" translate(-4.93, -19.07)" d="M 6.34315 17.6569 C 5.95263 17.2663 5.31946 17.2663 4.92894 17.6569 L 3.51473 19.0711 C 3.1242 19.4616 3.1242 20.0948 3.51473 20.4853 C 3.90525 20.8758 4.53842 20.8758 4.92894 20.4853 L 6.34315 19.0711 C 6.73368 18.6805 6.73368 18.0474 6.34315 17.6569 Z" stroke-linecap="round" />
</g>
		<g transform="matrix(33.33 0 0 33.33 333.33 0)"  >
<path style="stroke: none; stroke-width: 1; stroke-dasharray: none; stroke-linecap: butt; stroke-dashoffset: 0; stroke-linejoin: miter; stroke-miterlimit: 4; fill: rgb(255,255,255); fill-rule: nonzero; opacity: 1;" vector-effect="non-scaling-stroke"  transform=" translate(-22, -12)" d="M 21 13 C 20.4477 13 20 12.5523 20 12 C 20 11.4477 20.4477 11 21 11 L 23 11 C 23.5523 11 24 11.4477 24 12 C 24 12.5523 23.5523 13 23 13 L 21 13 Z" stroke-linecap="round" />
</g>
		<g transform="matrix(33.33 0 0 33.33 235.7 235.7)"  >
<path style="stroke: none; stroke-width: 1; stroke-dasharray: none; stroke-linecap: butt; stroke-dashoffset: 0; stroke-linejoin: miter; stroke-miterlimit: 4; fill: rgb(255,255,255); fill-rule: nonzero; opacity: 1;" vector-effect="non-scaling-stroke"  transform=" translate(-19.07, -19.07)" d="M 17.6568 17.6569 C 17.2663 18.0474 17.2663 18.6805 17.6568 19.0711 L 19.0711 20.4853 C 19.4616 20.8758 20.0947 20.8758 20.4853 20.4853 C 20.8758 20.0948 20.8758 19.4616 20.4853 19.0711 L 19.0711 17.6569 C 18.6805 17.2663 18.0474 17.2663 17.6568 17.6569 Z" stroke-linecap="round" />
</g>
</g>
</g>
</svg>